<?xml version="1.0" encoding="UTF-8" standalone="no"?>
<svg
   viewBox="0 0 512 512"
   version="1.1"
   id="svg8"
   sodipodi:docname="biotdark.svg"
   inkscape:version="1.3.2 (091e20ef0f, 2023-11-25)"
   xml:space="preserve"
   inkscape:export-filename="biotsb.png"
   inkscape:export-xdpi="96"
   inkscape:export-ydpi="96"
   style="height: 512px; width: 512px;"
   xmlns:inkscape="http://www.inkscape.org/namespaces/inkscape"
   xmlns:sodipodi="http://sodipodi.sourceforge.net/DTD/sodipodi-0.dtd"
   xmlns="http://www.w3.org/2000/svg"
   xmlns:svg="http://www.w3.org/2000/svg"><defs
     id="defs8" /><sodipodi:namedview
     id="namedview8"
     pagecolor="#000000"
     bordercolor="#000000"
     borderopacity="0.25"
     inkscape:showpageshadow="2"
     inkscape:pageopacity="0.0"
     inkscape:pagecheckerboard="0"
     inkscape:deskcolor="#d1d1d1"
     inkscape:zoom="2.8284271"
     inkscape:cx="281.4285"
     inkscape:cy="155.03316"
     inkscape:window-width="2560"
     inkscape:window-height="1371"
     inkscape:window-x="0"
     inkscape:window-y="0"
     inkscape:window-maximized="1"
     inkscape:current-layer="svg8"
     inkscape:export-bgcolor="#000000ff"
     showguides="true"
     showgrid="true" /><g
     id="g13"
     inkscape:label="guide lines"
     style="display:none;fill:#ffffff;stroke:#ffffff"
     sodipodi:insensitive="true"><path
       style="display:inline;opacity:0.8;fill:#ffffff;stroke:#ffffff;stroke-width:0.301969"
       d="M 256,-69.537011 V 581.53701"
       id="path9"
       inkscape:label="guide horizontal" /><path
       style="display:inline;opacity:0.8;fill:#ffffff;stroke:#ffffff;stroke-width:0.301969"
       d="M -197.97751,256 H 709.97751"
       id="path10"
       inkscape:label="guide vertical" /></g><g
     id="g39"
     inkscape:label="logo"><g
       id="g25"
       inkscape:label="claws"
       style="display:inline;fill:#ffffff"><path
         id="path24"
         style="display:inline;fill:#ffffff;stroke:none;stroke-width:1.07277;-inkscape-stroke:none"
         inkscape:label="claw3"
         d="m 253.38988,241.64737 -2e-4,-7.89809 c -19.36947,-12.18434 -33.11562,-29.97177 -33.11564,-53.05219 2e-5,-24.40299 13.01875,-46.95209 34.15234,-59.15358 18.19156,-10.48431 40.19363,-12.01926 59.66482,-4.1628 -23.59407,-10.15385 -50.59578,-8.58448 -72.85341,4.23659 -25.20082,14.54972 -40.72555,41.43934 -40.72558,70.53878 1e-5,27.69088 11.63459,57.5831 34.47549,72.95074 l 7.28695,-4.2073 0.37695,-0.6529 a 14.026583,14.026583 0 0 1 1.20575,-11.26809 14.026583,14.026583 0 0 1 9.15558,-6.67826 z" /><path
         id="path15"
         style="display:inline;fill:#ffffff;stroke:none;stroke-width:1.07277;-inkscape-stroke:none"
         inkscape:label="claw2"
         d="m 244.88477,265.4375 -6.83985,3.94922 c -0.86721,22.86663 -9.3985,43.66486 -29.38672,55.20508 -21.13362,12.20148 -47.17108,12.20148 -68.30468,0 -18.17545,-10.51219 -30.50579,-28.79907 -33.4375,-49.58985 3.00355,25.51 17.86352,48.10948 40.0957,60.97461 25.20084,14.54969 56.2503,14.54969 81.45117,0 23.981,-13.84545 44.05113,-38.8674 45.93945,-66.33203 l -7.28711,-4.20703 h -0.7539 A 14.026583,14.026583 0 0 1 256,270.02734 14.026583,14.026583 0 0 1 245.63867,265.4375 Z" /><path
         id="path25"
         style="display:inline;fill:#ffffff;stroke:none;stroke-width:1.07277;-inkscape-stroke:none"
         inkscape:label="claw1"
         d="m 269.73066,260.92158 6.84005,3.94887 c 20.23668,-10.68228 42.51412,-13.69308 62.50236,-2.15289 21.1336,12.20152 34.15233,34.75062 34.15234,59.15359 -0.0161,20.99651 -9.68784,40.81833 -26.22732,53.75265 20.59052,-15.35614 32.73226,-39.52499 32.75771,-65.2112 -2e-5,-29.09941 -15.52475,-55.98903 -40.72559,-70.53878 -23.98101,-13.84543 -55.68572,-18.7157 -80.41494,-6.61872 l 1.6e-4,8.41434 0.37695,0.65289 a 14.026583,14.026583 0 0 1 9.15558,6.67826 14.026583,14.026583 0 0 1 1.20575,11.26809 z" /></g><g
       id="g38"
       inkscape:label="outside target cut"
       style="fill:#800080"><path
         id="path35"
         style="color:#000000;display:inline;fill:#800080;stroke-width:1.00003467;stroke-dasharray:none"
         d="m 263.67556,-245.25799 c -0.51484,-0.90942 -0.9094,-1.88435 -1.20987,-2.88801 0.92712,-0.76344 1.7286,-1.69228 2.34861,-2.76617 1.05505,-1.82738 1.49738,-3.89698 1.32902,-5.92801 1.11064,-1.50222 2.00464,-3.16493 2.6978,-4.90001 1.82772,4.08869 1.60821,8.84592 -0.65947,12.77362 -1.03137,1.7864 -2.4236,3.29082 -4.05368,4.44468 -0.15945,-0.24006 -0.31063,-0.48565 -0.45241,-0.7361 z"
         transform="matrix(2.0974273,3.6328506,3.6328506,-2.0974273,649.06838,-1210.9512)" /><path
         id="path37"
         style="color:#000000;display:inline;fill:#800080;stroke-width:4.195;stroke-dasharray:none"
         d="m 223.80269,301.06545 c 2.15968,-3.81488 3.8148,-7.90457 5.07522,-12.11478 -3.88913,-3.20252 -7.25122,-7.09887 -9.85207,-11.60368 -4.42578,-7.66559 -6.28129,-16.34726 -5.57505,-24.86714 -4.65897,-6.30159 -8.40917,-13.27642 -11.31688,-20.55483 -7.66702,17.15146 -6.7462,37.10735 2.76638,53.58348 4.32645,7.49369 10.16665,13.80451 17.0046,18.64479 0.66887,-1.00702 1.30305,-2.03723 1.8978,-3.08784 z" /><path
         id="path38"
         style="color:#000000;display:inline;fill:#800080;stroke-width:4.195;stroke-dasharray:none"
         d="m 233.06668,205.58453 c 2.22394,3.77777 4.93815,7.25599 7.95409,10.45266 4.71803,-1.76683 9.77341,-2.73031 14.97512,-2.73031 8.85149,-4e-5 17.29779,2.73388 24.3231,7.60544 7.78682,-0.88399 15.7023,-0.64435 23.45944,0.47671 -11.02009,-15.21557 -28.7628,-24.39606 -47.78784,-24.39599 -8.65295,-3e-5 -17.03838,1.90232 -24.64916,5.40402 0.53767,1.08277 1.11277,2.14709 1.72525,3.18747 z" /></g></g><text
     xml:space="preserve"
     style="font-size:17.3333px;font-family:'Liberation Mono';-inkscape-font-specification:'Liberation Mono';display:none;opacity:1;fill:#ffffff"
     x="188.62611"
     y="84.000076"
     id="text1"
     inkscape:label="text"><tspan
       sodipodi:role="line"
       id="tspan1"
       x="0"
       y="0"
       style="fill:#6a9955;fill-opacity:1">#!/BIOT GROUP</tspan></text></svg>
